<svg xmlns="http://www.w3.org/2000/svg" viewBox="0 0 1200 630">
  <!-- Background -->
  <rect width="1200" height="630" fill="#0a0a0a"/>
  
  <!-- Background gradient -->
  <defs>
    <radialGradient id="glow" cx="50%" cy="50%">
      <stop offset="0%" style="stop-color:#FFE500;stop-opacity:0.15" />
      <stop offset="100%" style="stop-color:#FFE500;stop-opacity:0" />
    </radialGradient>
  </defs>
  <ellipse cx="600" cy="315" rx="400" ry="250" fill="url(#glow)"/>
  
  <!-- Heart Icon -->
  <path d="M600 400c-5 0-10-2-14-5-12-10-120-108-120-200 0-60 43-108 100-108 26 0 50 10 72 30 22-20 46-30 72-30 57 0 100 48 100 108 0 92-108 190-120 200-4 3-9 5-14 5z" fill="#FFE500" opacity="0.9"/>
  
  <!-- Text -->
  <text x="600" y="480" font-family="system-ui, -apple-system, sans-serif" font-size="48" font-weight="700" text-anchor="middle" fill="#FFE500">
    Concierge Health
  </text>
  <text x="600" y="520" font-family="system-ui, -apple-system, sans-serif" font-size="24" font-weight="400" text-anchor="middle" fill="#E6E6E6">
    Premium Healthcare Navigation • London
  </text>
</svg>